<svg id="Layer_1" data-name="Layer 1" xmlns="http://www.w3.org/2000/svg" viewBox="0 0 101 101"><title>Artboard 2 copy 22</title><path d="M89.78,38.48a12.37,12.37,0,0,0-5.42,1.32A31.82,31.82,0,0,0,85,33.5,1.5,1.5,0,0,0,83.5,32h-60A1.5,1.5,0,0,0,22,33.5a31.2,31.2,0,0,0,7.65,20.58A19.63,19.63,0,0,0,15.14,65.58a14.25,14.25,0,0,0-7,9.7,1.5,1.5,0,0,0,.42,1.27l7.63,7.63a1.5,1.5,0,0,0,1.78.26l9.89-5.36h0L37.84,77H51l9.86,2.06,9.93,5.39a1.5,1.5,0,0,0,1.78-.26l7.63-7.63a1.5,1.5,0,0,0,.42-1.27,14.25,14.25,0,0,0-6.9-9.64,20.55,20.55,0,0,0-3.52-5.46,31.59,31.59,0,0,0,2.61-1.8L73.3,58l0,0c3-2.25,6.3-1.56,10.1-.75a30.45,30.45,0,0,0,6.33.88,9.8,9.8,0,0,0,0-19.6ZM82,35a28.44,28.44,0,0,1-2.06,9.27l0,0v0A28.08,28.08,0,0,1,67.95,58a20.87,20.87,0,0,0-10.82-4.3,15.85,15.85,0,0,0-12.77-6.88,15.13,15.13,0,0,0-11.91,5.84A28.2,28.2,0,0,1,25,35ZM50,74H38.87L34.22,55.39a12.12,12.12,0,0,1,10.14-5.53,13,13,0,0,1,10.28,5.55ZM31.47,56.79l4.39,17.55L28.07,76,18.2,66.11C20.11,62.23,23.92,57.88,31.47,56.79Zm-14,24.48L11.26,75a11.32,11.32,0,0,1,5-6.62L25,77.2Zm60-6.26-6.26,6.26-7.48-4.05,8.8-8.8A11.26,11.26,0,0,1,77.51,75ZM60.78,76,53,74.35,57.39,56.8c7.55,1.09,11.36,5.43,13.26,9.31Zm29-20.89a28.23,28.23,0,0,1-5.71-.81,28,28,0,0,0-6.17-.84,31.17,31.17,0,0,0,4.77-8c1-2.22,4.08-4,7.12-4a6.8,6.8,0,0,1,0,13.6Z"/><path d="M50.8,10.65c-2.16,1.76-4.84,4-4.84,8.64C46,25.58,52,28.38,55.22,29l.28,0a1.5,1.5,0,0,0,.28-3C55.5,26,49,24.66,49,19.29,49,16,50.69,14.61,52.69,13c1.79-1.46,3.82-3.12,3.82-6.14a6.25,6.25,0,0,0-1.82-4.68,8,8,0,0,0-5.44-2,1.5,1.5,0,0,0,.05,3h0a5.21,5.21,0,0,1,3.28,1.15,3.34,3.34,0,0,1,.9,2.52C53.51,8.36,52.53,9.24,50.8,10.65Z"/></svg>