<?xml version="1.0" encoding="utf-8"?>
<!-- Generator: Adobe Illustrator 22.1.0, SVG Export Plug-In . SVG Version: 6.00 Build 0)  -->
<svg version="1.1" xmlns="http://www.w3.org/2000/svg" xmlns:xlink="http://www.w3.org/1999/xlink" x="0px" y="0px"
	 viewBox="0 0 1400 1400" style="enable-background:new 0 0 1400 1400;" xml:space="preserve">
<style type="text/css">
	.st0{fill:#CE5D51;}
	.st1{fill:#BC4940;}
	.st2{fill:#6D6D6D;}
	.st3{fill:#4C4A48;}
	.st4{fill:#F9DBBD;}
	.st5{fill:#FFFFFF;}
	.st6{fill:#DDB897;}
	.st7{fill:#281D12;}
	.st8{fill:#F9DBBD;stroke:#F9DBBD;stroke-width:0.5;stroke-miterlimit:10;}
	.st9{fill:#0F0D0C;}
	.st10{fill:#F9A19D;}
	.st11{fill:#8E1B2F;}
	.st12{fill:#FFD850;}
	.st13{fill:#E5E5E5;}
	.st14{fill:#EAEAEA;}
</style>
<g id="BACKGROUND">
	<rect x="-0.2" y="0.2" class="st0" width="1400" height="1400"/>
</g>
<g id="OBJECTS">
	<g>
		<circle class="st1" cx="659.9" cy="713.4" r="481.1"/>
		<g>
			<g>
				<path class="st2" d="M1256.3,638.2c0,1.2,0,2.4-0.1,3.6h-239.4c-0.1-1.2-0.1-2.4-0.1-3.6c0-5.1,0.3-10.2,1-15.2
					c7.4-59,57.8-104.6,118.8-104.6c61,0,111.3,45.6,118.8,104.6C1256,628,1256.3,633.1,1256.3,638.2z"/>
			</g>
			<g>
				<path class="st3" d="M1145.8,515.4c0,5.1-4.1,9.3-9.3,9.3s-9.3-4.1-9.3-9.3c0-5.1,4.1-9.3,9.3-9.3S1145.8,510.3,1145.8,515.4z"
					/>
			</g>
			<g>
				<path class="st4" d="M1068.3,661.9c0,0,2.7-19.9,12.4-21.3c9.6-1.4,82.4-2.1,97.4-5.5c15.1-3.4,32.9-5.5,28.8,6.2
					c-4.1,11.7-53.5,22.6-73.4,24c-19.9,1.4-26.8,7.8-26.8,7.8L1068.3,661.9z"/>
			</g>
			<g>
				<path class="st4" d="M362.6,656.2c0,0,5.2-30.1,4-36.5c-1.2-6.5,1-64.2,8.9-66.6c7.9-2.4,6.7,40.6,9.4,41.8
					c2.8,1.2,7.6-66.1,15.5-66.1c8,0-3.6,64.1,0,63.7c3.6-0.4,24.3-64.1,33.8-63.7c9.6,0.4-16.3,60.5-13.9,69.2
					c2.4,8.8,20.2-0.8,27.5,15.9c6.7,15.4-4.8,17.7-6.4,11.5c-1.6-6.2-16.4-13.9-23.5-10.3c-7.2,3.6-14.7,26.2,3.6,26.9
					s17.2-6.4,19.9-8.1c3.9-2.5,12.3-1.8,9.2,8.1c-3.2,9.8-19.2,16-34.1,17c-9.8,0.7-18.5,13.1-20.8,14.3
					C393.2,674.5,362.6,656.2,362.6,656.2z"/>
			</g>
			<g>
				<path class="st5" d="M615.8,746c0,0-17,3.3-52.5,30.6c-35.5,27.3-131.2,129.8-164,103.9c-32.8-26-64.2-96.6-10.9-191.8
					L354.2,659c0,0-62.9,84.7-69.7,150.3s36.9,159.9,113.4,166.7c76.5,6.8,93.9-21.9,93.9-21.9s-61.2,274.7-42.1,304.8
					c0,0,69.7,23.2,179.1,28.7c109.3,5.5,225.5-75.2,291.1-68.3c0,0-32.8-225.5-86.1-291.1c0,0,113.3,23.2,191.3-83.4
					c73-99.7,79.3-152.8,79.3-152.8l-39.6-19.4c0,0-81.2,139.4-137.2,147.6c-56,8.2-193.5-62.1-239.2-58.4
					C644.2,765.6,615.8,746,615.8,746z"/>
			</g>
			<g>
				<polygon class="st6" points="594.3,671.1 588.1,762.8 697.3,762.8 691.5,665.6 				"/>
			</g>
			<g>
				<path class="st7" d="M790.4,546.3c-2.9,14.8-11.3,24.6-19.9,31c3.6-13.2,6.1-26.8,7.5-40.5c5.5-55.2-10.6-122.9-34.7-138.9
					c-44.9-30-211.7-25.8-236.3,47.7c-6.2,18.7-8.7,81.2,2.2,135.2c-15.4-15.5-25.3-48.9-28.7-76.6c-4.1-33.3,5.1-106.3,21.2-127.3
					c27.8-36.1,68-43.6,119.7-49c44-4.6,130.1,2.1,157.7,40.9C806.7,407.4,797.1,512.2,790.4,546.3z"/>
			</g>
			<g>
				<path class="st8" d="M778,536.8c-1.2,12-3.2,23.8-6.1,35.4c-0.4,1.7-0.9,3.4-1.3,5.1c-10.9,40-31.8,75.9-59.9,96.3
					c-37.5,27.2-129.4,28.6-173.6-24.5c-13.4-16.2-22.3-41.2-27.8-68.4c-0.6-2.8-1.1-5.5-1.6-8.3c-3.8-22-5.6-44.9-5.9-65.4
					c-0.4-27.9,1.8-51.2,5.3-61.4c24.5-73.5,191.3-77.6,236.3-47.7c19.8,13.2,34.2,61.3,35.7,108.7C779.3,516.8,779,527,778,536.8z"
					/>
			</g>
			<g>
				<path class="st7" d="M501.8,506.9c10.2,6.8,42-20.5,42.7-66.2c0,0,15,23.1,58.6,22.5c43.6-0.7-2-34,0-42.9
					c2-8.9,62,31.3,85.1,38.8c23.1,7.5,27.9-14.3,21.1-29.3c-6.8-15,54.8,80.1,69.7,76.7c14.9-3.4,6.6-102.6-16.6-116.2
					c-23.1-13.6-94-30-144.3-17c-50.4,12.9-104.9,28.3-119.2,65.5C484.6,476.2,501.8,506.9,501.8,506.9z"/>
			</g>
			<g>
				<path class="st5" d="M844,276c-22.5,43.6-59.9,30-59.9,30l-5.1,62.7c0,0-61.1-34.2-126.4-31.4c-65.2,2.8-151,39.5-151,39.5
					v-64.6c0,0-32.8,14.4-72.3-21.8c-31.5-28.9-19.1-100.8,45.6-118.5c63-17.3,80.1,21.7,81,23.8c-0.5-2.8-11.7-71.2,77-83
					c90.5-12,105.5,70.1,105.5,70.1C820.9,146,866.5,232.4,844,276z"/>
			</g>
			<g>
				<circle class="st9" cx="563.9" cy="532.3" r="9.6"/>
			</g>
			<g>
				<path class="st9" d="M543.2,499.5c14.6-3.1,32.9,0.3,38,6.9c5,6.6,13.1-3.9-0.7-11.3c-10.3-5.5-30.8-3.3-37.6-1
					C536,496.4,537.3,500.8,543.2,499.5z"/>
			</g>
			<g>
				<path class="st9" d="M731.7,500.6c-14.4-3.9-32.9-1.5-38.3,4.8c-5.4,6.3-12.9-4.6,1.3-11.2c10.5-4.9,30.9-1.5,37.6,1.1
					C739,497.9,737.4,502.2,731.7,500.6z"/>
			</g>
			<g>
				<g>
					<path class="st9" d="M700,533.5c1.9-3.8,4.4-6.2,8.6-7.4c7-1.9,11.5,2.5,14.6,8.1c1.9,3.5,7.3,0.4,5.3-3.1
						c-3.9-7.1-9.1-11.5-17.5-11.4c-7.3,0-13.2,4.4-16.4,10.7C692.8,533.9,698.2,537,700,533.5L700,533.5z"/>
				</g>
			</g>
			<g>
				<path class="st10" d="M659.8,560.5c-0.6,6.7-8,17.4-20.8,17.4c-12.7,0-21.7-9-21.8-15.8c-0.1-8.4,13.2-24.6,21.3-25.9
					C646.7,534.9,660.3,555.3,659.8,560.5z"/>
			</g>
			<g>
				<g>
					<path class="st9" d="M613.6,617.7c16.1,14.5,34.7,13.1,49.9-1.5c2.9-2.8-1.5-7.1-4.4-4.4c-12.6,12.1-27.6,13.8-41.2,1.5
						C615,610.7,610.6,615,613.6,617.7L613.6,617.7z"/>
				</g>
			</g>
			<g>
				<path class="st4" d="M507.6,572.4c-4.7,0.8-10.8,1-19-0.3c-30.5-4.7-34.8-68.8-12.9-72.2c10-1.6,19.1,2.4,26.1,7.1
					C502.1,527.4,503.8,550.4,507.6,572.4z"/>
			</g>
			<g>
				<path class="st4" d="M791.5,572.1c-8.6,1.3-14.9,1.1-19.7,0.2c2.9-11.6,5-23.5,6.1-35.4c1-9.8,1.3-20,1-30.3
					c6.9-4.5,15.8-8.2,25.5-6.7C826.4,503.3,822,567.3,791.5,572.1z"/>
			</g>
			<g>
				<path class="st11" d="M590.8,723c0,0,63.5,12.4,104.1,0c0,0,10.8,16.8,9.2,39.9c0,0-49.5,4.5-62.3,4.5
					c-17.9,0-60.6-4.5-60.6-4.5S582.5,739.4,590.8,723z"/>
			</g>
			<g>
				<polygon class="st11" points="526.3,1276.4 522.2,1276 569,828.4 640.7,820.4 640.7,757.6 644.8,757.6 644.8,824.1 572.8,832.2 
									"/>
			</g>
			<g>
				<g>
					<path class="st9" d="M605.7,868.8c0,4.1-3.3,7.4-7.4,7.4c-4.1,0-7.4-3.3-7.4-7.4s3.3-7.4,7.4-7.4
						C602.4,861.4,605.7,864.7,605.7,868.8z"/>
				</g>
				<g>
					<path class="st9" d="M595.5,963.5c0,4.1-3.3,7.4-7.4,7.4c-4.1,0-7.4-3.3-7.4-7.4c0-4.1,3.3-7.4,7.4-7.4
						C592.2,956.1,595.5,959.4,595.5,963.5z"/>
				</g>
				<g>
					<path class="st9" d="M585.3,1058.2c0,4.1-3.3,7.4-7.4,7.4c-4.1,0-7.4-3.3-7.4-7.4s3.3-7.4,7.4-7.4
						C582,1050.8,585.3,1054.1,585.3,1058.2z"/>
				</g>
				<g>
					<path class="st9" d="M575.2,1152.9c0,4.1-3.3,7.4-7.4,7.4c-4.1,0-7.4-3.3-7.4-7.4c0-4.1,3.3-7.4,7.4-7.4
						C571.9,1145.5,575.2,1148.8,575.2,1152.9z"/>
				</g>
				<g>
					<path class="st9" d="M565,1247.6c0,4.1-3.3,7.4-7.4,7.4s-7.4-3.3-7.4-7.4s3.3-7.4,7.4-7.4S565,1243.5,565,1247.6z"/>
				</g>
			</g>
			<g>
				<path class="st11" d="M360.9,642.1c-1.6,0.4-13.8,12.4-9.6,17c4.2,4.6,35,32.1,38.8,30.7c3.8-1.4,11.6-10.7,10.1-14.5
					C398.8,671.4,368.1,640.4,360.9,642.1z"/>
			</g>
			<g>
				<path class="st11" d="M1067.9,651.7c-7.5,1.4-12.3,19.3-4.5,23.5c7.8,4.2,38.3,21.7,44.6,19c6.3-2.6,13.6-17.3,4.3-23.4
					C1102.9,664.7,1073.2,650.7,1067.9,651.7z"/>
			</g>
			<g>
				<path class="st3" d="M1273.5,632.4c0,5.2-4.2,9.4-9.4,9.4h-255c-5.2,0-9.4-4.2-9.4-9.4c0-2.6,1-4.9,2.8-6.6
					c1.7-1.7,4-2.8,6.6-2.8h255C1269.3,623.1,1273.5,627.3,1273.5,632.4z"/>
			</g>
			<g>
				<g>
					<path class="st5" d="M1059,572c8.1-11.3,18-19.8,30.6-25.7c3.6-1.7,0.5-7-3.1-5.3c-13.6,6.4-24.1,15.8-32.8,27.9
						C1051.3,572.1,1056.7,575.2,1059,572L1059,572z"/>
				</g>
			</g>
			<g>
				<g>
					<path class="st5" d="M1048.4,590.8c0.1-0.3,0.2-0.5,0.4-0.7c2.6-3-1.7-7.4-4.4-4.4c-1.3,1.5-2,3-2.2,5
						C1041.8,594.7,1048,594.7,1048.4,590.8L1048.4,590.8z"/>
				</g>
			</g>
			<g>
				<path class="st12" d="M1209.5,498.9L1209.5,498.9c-2.5,19.9-24.4,26.1-24.4,26.1c17.7,2.2,24.4,35.8,24.4,35.8
					s6.7-33.6,24.4-35.8C1233.9,525,1212,518.8,1209.5,498.9z"/>
			</g>
			<g>
				<path class="st12" d="M1240.9,476.3L1240.9,476.3c-1.6,12.6-15.5,16.5-15.5,16.5c11.2,1.4,15.5,22.6,15.5,22.6
					s4.3-21.3,15.5-22.6C1256.3,492.7,1242.5,488.8,1240.9,476.3z"/>
			</g>
			<g>
				<path class="st12" d="M1258.4,531.1L1258.4,531.1c-2.1,16.7-20.5,21.8-20.5,21.8c14.8,1.8,20.5,29.9,20.5,29.9
					s5.6-28.1,20.5-29.9C1278.9,552.9,1260.5,547.8,1258.4,531.1z"/>
			</g>
			<g>
				<g>
					<path class="st5" d="M501.9,414.1c-3.4,9.4-7.9,19-6.9,29.3c0.4,3.9,6.5,4,6.2,0c-0.9-9.7,3.4-18.7,6.7-27.6
						C509.2,411.9,503.2,410.3,501.9,414.1L501.9,414.1z"/>
				</g>
			</g>
			<g>
				<g>
					<path class="st5" d="M512,402.2c0.7-0.8,1.2-1.7,1.9-2.5c2.6-3-1.7-7.4-4.4-4.4c-0.7,0.8-1.2,1.7-1.9,2.5
						C505,400.8,509.4,405.2,512,402.2L512,402.2z"/>
				</g>
			</g>
			<g>
				<g>
					<path class="st11" d="M348.7,493.4c2.5,5.1,4.9,10.3,7.4,15.5c3.5,7.1,14.2,0.9,10.7-6.2c-2.5-5.1-4.9-10.3-7.4-15.5
						C355.8,480.1,345.1,486.3,348.7,493.4L348.7,493.4z"/>
				</g>
			</g>
			<g>
				<g>
					<path class="st11" d="M314.4,536.4c6.9,4.1,13.7,8.3,21.3,11.1c7.5,2.8,10.7-9.1,3.3-11.9c-6.5-2.5-12.4-6.3-18.3-9.9
						C313.8,521.7,307.6,532.3,314.4,536.4L314.4,536.4z"/>
				</g>
			</g>
			<g>
				<g>
					<path class="st11" d="M407.4,487.4c-0.6,3.4-0.8,6.8-0.8,10.3c0,8,12.3,8,12.4,0c0-2.4,0.1-5.2,0.4-7c0.6-3.3-0.9-6.6-4.3-7.6
						C411.9,482.3,408,484.1,407.4,487.4L407.4,487.4z"/>
				</g>
			</g>
			<g>
				<g>
					<path class="st13" d="M792.5,908c7.2,10.3,21.1,18,33.1,20.7c3.9,0.9,5.5-5.1,1.6-6c-10.4-2.3-23.2-9-29.5-17.9
						C795.6,901.7,790.2,904.8,792.5,908L792.5,908z"/>
				</g>
			</g>
			<g>
				<g>
					<path class="st13" d="M781.2,893c0.6,1.4,1.4,2.6,2.5,3.7c2.8,2.8,7.2-1.5,4.4-4.4c-0.3-0.3-0.7-0.6-0.9-1
						c-0.7-1.5-2-2.6-3.8-2.2C781.9,889.6,780.6,891.4,781.2,893L781.2,893z"/>
				</g>
			</g>
			<g>
				<g>
					<path class="st13" d="M511.1,924.5c-3.5,7.2-7.9,14-13.9,19.4c-2.9,2.7,1.4,7,4.4,4.4c6.3-5.7,11.1-13,14.9-20.7
						C518.2,924.1,512.8,921,511.1,924.5L511.1,924.5z"/>
				</g>
			</g>
			<g>
				<g>
					<path class="st13" d="M520.3,908.9c-0.1,0.1-0.2,0.2-0.3,0.3c-2.8,2.8,1.5,7.2,4.4,4.4c0.1-0.1,0.2-0.2,0.3-0.3
						C527.5,910.4,523.1,906.1,520.3,908.9L520.3,908.9z"/>
				</g>
			</g>
			<g>
				<g>
					<path class="st13" d="M520.4,291.6c-4.8,7.1-13.2,10.9-20.4,15.1c-3.5,2-0.3,7.3,3.1,5.3c8.3-4.8,17.2-9.1,22.7-17.3
						C527.9,291.4,522.6,288.3,520.4,291.6L520.4,291.6z"/>
				</g>
			</g>
			<g>
				<g>
					<path class="st13" d="M532.3,286.6c4,0,4-6.2,0-6.2C528.3,280.5,528.3,286.6,532.3,286.6L532.3,286.6z"/>
				</g>
			</g>
			<g>
				<path class="st14" d="M784.2,306l-5.1,62.7c0,0-61.1-34.2-126.4-31.4c-65.2,2.8-151,39.5-151,39.5v-64.6
					c0,0,99.2-40.1,174.1-31.3C757,290.5,784.2,306,784.2,306z"/>
			</g>
			<g>
				<g>
					<path class="st13" d="M754.7,292.7c6.1,8.3,15.3,13.4,25.3,15.7c3.9,0.9,5.5-5.1,1.6-6c-8.3-1.9-16.5-5.9-21.6-12.9
						C757.7,286.4,752.4,289.5,754.7,292.7L754.7,292.7z"/>
				</g>
			</g>
			<g>
				<g>
					<path class="st13" d="M750.7,285.4c4,0,4-6.2,0-6.2C746.7,279.3,746.7,285.4,750.7,285.4L750.7,285.4z"/>
				</g>
			</g>
			<g>
				<g>
					<path class="st13" d="M562.7,210.3c-0.1-3.7-1.5-7-2.6-10.6c-1.2-3.8-7.1-2.2-6,1.6c0.9,2.9,2.3,5.8,2.4,8.9
						C556.6,214.3,562.8,214.3,562.7,210.3L562.7,210.3z"/>
				</g>
			</g>
			<g>
				<g>
					<path class="st13" d="M745.7,200.6c5.6-7.1,13-11.3,21.9-12.7c3.9-0.6,2.3-6.6-1.6-6c-9.8,1.5-18.5,6.5-24.6,14.3
						C738.9,199.3,743.3,203.7,745.7,200.6L745.7,200.6z"/>
				</g>
			</g>
			<g>
				<g>
					<path class="st13" d="M733.3,197.1c1.8-2.4,3.3-4.9,5.5-6.9c2.9-2.7-1.4-7.1-4.4-4.4c-2.6,2.4-4.4,5.4-6.5,8.2
						c-1,1.4-0.2,3.4,1.1,4.2C730.7,199.1,732.3,198.5,733.3,197.1L733.3,197.1z"/>
				</g>
			</g>
			<g>
				<g>
					<path class="st13" d="M513,1223.8c-0.8,8.4-1.5,16.8-2.9,25.2c-0.7,3.9,5.3,5.6,6,1.6c1.5-8.9,2.4-17.8,3.2-26.8
						C519.5,1219.8,513.3,1219.8,513,1223.8L513,1223.8z"/>
				</g>
			</g>
			<g>
				<g>
					<path class="st13" d="M514.5,1192.4c0,3.3,0,6.6,0,9.9c0,4,6.2,4,6.2,0c0-3.3,0-6.6,0-9.9
						C520.7,1188.4,514.5,1188.4,514.5,1192.4L514.5,1192.4z"/>
				</g>
			</g>
			<g>
				<g>
					<path class="st13" d="M1081.9,714.7c-3,9.6-8.6,18-12.6,27.1c-1.6,3.6,3.7,6.8,5.3,3.1c4.2-9.6,10.1-18.5,13.2-28.6
						C1089,712.5,1083.1,710.9,1081.9,714.7L1081.9,714.7z"/>
				</g>
			</g>
			<g>
				<g>
					<path class="st13" d="M1085.9,699.1c0,0.9,0,1.8-0.2,2.7c-0.8,3.9,5.2,5.5,6,1.6c0.3-1.4,0.4-2.9,0.4-4.3
						C1092.1,695.1,1085.9,695.1,1085.9,699.1L1085.9,699.1z"/>
				</g>
			</g>
			<g>
				<g>
					<path class="st5" d="M624.8,553.8c-1.4,2.8-2.5,5.6-2.5,8.8c0,2,3.1,2,3.1,0c0-2.7,0.9-4.9,2.1-7.3
						C628.3,553.6,625.7,552,624.8,553.8L624.8,553.8z"/>
				</g>
			</g>
			<g>
				<g>
					<path class="st5" d="M357.7,655.3c0.9-2,2-3.4,3.7-4.6c1.6-1.1,0.1-3.8-1.6-2.7c-2.2,1.5-3.8,3.3-4.8,5.7
						C354.2,655.5,356.9,657.1,357.7,655.3L357.7,655.3z"/>
				</g>
			</g>
			<g>
				<g>
					<path class="st5" d="M596.6,869.6c2,0,2-3.1,0-3.1C594.6,866.6,594.6,869.6,596.6,869.6L596.6,869.6z"/>
				</g>
			</g>
			<g>
				<g>
					<path class="st5" d="M574.4,1058.4c2,0,2-3.1,0-3.1C572.4,1055.3,572.4,1058.4,574.4,1058.4L574.4,1058.4z"/>
				</g>
			</g>
			<g>
				<g>
					<path class="st5" d="M1201.4,524.8c3.1-1.5,5.1-4,7.3-6.5c1.3-1.5-0.9-3.7-2.2-2.2c-2.1,2.3-3.9,4.6-6.7,6
						C1198.1,523,1199.6,525.7,1201.4,524.8L1201.4,524.8z"/>
				</g>
			</g>
			<g>
				<g>
					<path class="st5" d="M1235.7,494.6c1-1.1,2.3-1.9,3.4-2.8c1.6-1.2,0-3.9-1.6-2.7c-1.4,1.1-2.9,1.9-4.1,3.2
						C1232.2,493.9,1234.4,496.1,1235.7,494.6L1235.7,494.6z"/>
				</g>
			</g>
		</g>
		<path class="st1" d="M1371.1,228.1c0,14.6-11.9,26.5-26.5,26.5h-85c-14.6,0-26.5-11.9-26.5-26.5l0,0c0-14.6,11.9-26.5,26.5-26.5
			h85C1359.2,201.6,1371.1,213.5,1371.1,228.1L1371.1,228.1z"/>
		<path class="st1" d="M315,132.1c0,14.6-11.9,26.5-26.5,26.5h-85c-14.6,0-26.5-11.9-26.5-26.5l0,0c0-14.6,11.9-26.5,26.5-26.5h85
			C303.1,105.6,315,117.5,315,132.1L315,132.1z"/>
		<path class="st1" d="M1305.8,942.8c0,14.6-11.9,26.5-26.5,26.5h-85c-14.6,0-26.5-11.9-26.5-26.5l0,0c0-14.6,11.9-26.5,26.5-26.5
			h85C1294,916.4,1305.8,928.2,1305.8,942.8L1305.8,942.8z"/>
		<path class="st1" d="M362,1321c0,14.6-11.9,26.5-26.5,26.5h-85c-14.6,0-26.5-11.9-26.5-26.5l0,0c0-14.6,11.9-26.5,26.5-26.5h85
			C350.1,1294.5,362,1306.4,362,1321L362,1321z"/>
		<path class="st1" d="M1211.8,1126.1c0,14.6-11.9,26.5-26.5,26.5h-85c-14.6,0-26.5-11.9-26.5-26.5l0,0c0-14.6,11.9-26.5,26.5-26.5
			h85C1199.9,1099.7,1211.8,1111.5,1211.8,1126.1L1211.8,1126.1z"/>
		<path class="st1" d="M1006,99c0,14.6-11.9,26.5-26.5,26.5h-85c-14.6,0-26.5-11.9-26.5-26.5l0,0c0-14.6,11.9-26.5,26.5-26.5h85
			C994.1,72.5,1006,84.4,1006,99L1006,99z"/>
		<path class="st1" d="M1162.3,1201.1c0,14.6-11.9,26.5-26.5,26.5h-85c-14.6,0-26.5-11.9-26.5-26.5l0,0c0-14.6,11.9-26.5,26.5-26.5
			h85C1150.4,1174.7,1162.3,1186.5,1162.3,1201.1L1162.3,1201.1z"/>
		<path class="st1" d="M1296.5,168.4c0,14.6-11.9,26.5-26.5,26.5h-85c-14.6,0-26.5-11.9-26.5-26.5l0,0c0-14.6,11.9-26.5,26.5-26.5
			h85C1284.7,141.9,1296.5,153.8,1296.5,168.4L1296.5,168.4z"/>
		<path class="st1" d="M1399.8,477.6v52.2c-1.4,0.3-2.9,0.4-4.3,0.4h-85c-14.6,0-26.5-11.8-26.5-26.5c0-7.3,3-13.9,7.8-18.7
			s11.4-7.8,18.7-7.8h85C1397,477.2,1398.4,477.4,1399.8,477.6z"/>
		<path class="st1" d="M1399.8,626.3v52.9h-20.4c-14.6,0-26.5-11.9-26.5-26.5c0-7.3,3-13.9,7.8-18.7c4.8-4.8,11.4-7.8,18.7-7.8
			H1399.8z"/>
		<path class="st1" d="M153.7,459.1c0,14.6-11.9,26.5-26.5,26.5h-85c-14.6,0-26.5-11.9-26.5-26.5l0,0c0-14.6,11.9-26.5,26.5-26.5h85
			C141.9,432.6,153.7,444.5,153.7,459.1L153.7,459.1z"/>
		<path class="st1" d="M45.5,368.6c0,14.6-11.8,26.5-26.5,26.5H-0.2v-52.9H19C33.6,342.2,45.5,354,45.5,368.6z"/>
		<path class="st1" d="M1224.4,228.1c0,14.6-11.9,26.5-26.5,26.5h-85c-14.6,0-26.5-11.9-26.5-26.5l0,0c0-14.6,11.9-26.5,26.5-26.5
			h85C1212.6,201.6,1224.4,213.5,1224.4,228.1L1224.4,228.1z"/>
		<path class="st1" d="M59.5,1130.5H1v52.9h58.5c14.6,0,26.5-11.9,26.5-26.5S74.1,1130.5,59.5,1130.5z"/>
	</g>
</g>
</svg>
